{
  "accessors": [
    {
      "name": "polySurface136_1_0_positions",
      "componentType": 5126,
      "count": 604,
      "min": [
        292.4736022949219,
        -8657.427734375,
        -11946.4873046875
      ],
      "max": [
        20320.08984375,
        -8645.091796875,
        10228.4990234375
      ],
      "type": "VEC3",
      "bufferView": 0,
      "byteOffset": 0
    },
    {
      "name": "polySurface136_1_0_texcoords",
      "componentType": 5126,
      "count": 604,
      "min": [
        0.1940000057220459,
        -0.7939000129699707
      ],
      "max": [
        0.9599999785423279,
        1.7939000129699707
      ],
      "type": "VEC2",
      "bufferView": 1,
      "byteOffset": 0
    },
    {
      "name": "polySurface136_1_0_indices",
      "componentType": 5123,
      "count": 906,
      "min": [
        0
      ],
      "max": [
        603
      ],
      "type": "SCALAR",
      "bufferView": 2,
      "byteOffset": 0
    }
  ],
  "asset": {
    "generator": "obj2gltf",
    "version": "2.0"
  },
  "buffers": [
    {
      "name": "HT科幻地面",
      "byteLength": 33644,
      "uri": "data:application/octet-stream;base64,"
    }
  ],
  "bufferViews": [
    {
      "name": "bufferView_0",
      "buffer": 0,
      "byteLength": 7248,
      "byteOffset": 0,
      "byteStride": 12,
      "target": 34962
    },
    {
      "name": "bufferView_1",
      "buffer": 0,
      "byteLength": 4832,
      "byteOffset": 7248,
      "byteStride": 8,
      "target": 34962
    },
    {
      "name": "bufferView_2",
      "buffer": 0,
      "byteLength": 1812,
      "byteOffset": 12080,
      "target": 34963
    },
    {
      "buffer": 0,
      "byteOffset": 13892,
      "byteLength": 19749
    }
  ],
  "images": [
    {
      "name": "kehuandimian",
      "mimeType": "image/png",
      "bufferView": 3
    }
  ],
  "materials": [
    {
      "name": "lambert30",
      "pbrMetallicRoughness": {
        "baseColorTexture": {
          "index": 0
        },
        "baseColorFactor": [
          1,
          1,
          1,
          1
        ],
        "metallicFactor": 0,
        "roughnessFactor": 1
      },
      "emissiveFactor": [
        0,
        0,
        0
      ],
      "alphaMode": "BLEND",
      "doubleSided": true
    }
  ],
  "meshes": [
    {
      "name": "polySurface136_1",
      "primitives": [
        {
          "attributes": {
            "POSITION": 0,
            "TEXCOORD_0": 1
          },
          "indices": 2,
          "material": 0,
          "mode": 4
        }
      ]
    }
  ],
  "nodes": [
    {
      "name": "polySurface136",
      "mesh": 0
    }
  ],
  "samplers": [
    {
      "magFilter": 9729,
      "minFilter": 9986,
      "wrapS": 10497,
      "wrapT": 10497
    }
  ],
  "scene": 0,
  "scenes": [
    {
      "nodes": [
        0
      ]
    }
  ],
  "textures": [
    {
      "name": "kehuandimian",
      "sampler": 0,
      "source": 0
    }
  ]
}
