{
  "accessors": [
    {
      "name": "pCylinder7_1_0_positions",
      "componentType": 5126,
      "count": 26,
      "min": [
        110.68609619140625,
        -76.07160186767578,
        113.743896484375
      ],
      "max": [
        181.456298828125,
        -36.992000579833984,
        184.51409912109375
      ],
      "type": "VEC3",
      "bufferView": 0,
      "byteOffset": 0
    },
    {
      "name": "pCylinder7_1_0_normals",
      "componentType": 5126,
      "count": 26,
      "min": [
        -0.9434178471565247,
        -0.33160853385925293,
        -0.9434178471565247
      ],
      "max": [
        0.9434178471565247,
        -0.33160626888275146,
        0.9434178471565247
      ],
      "type": "VEC3",
      "bufferView": 1,
      "byteOffset": 0
    },
    {
      "name": "pCylinder7_1_0_texcoords",
      "componentType": 5126,
      "count": 26,
      "min": [
        0.21889999508857727,
        0.21289999783039093
      ],
      "max": [
        0.7810999751091003,
        0.8309999704360962
      ],
      "type": "VEC2",
      "bufferView": 2,
      "byteOffset": 0
    },
    {
      "name": "pCylinder7_1_0_indices",
      "componentType": 5123,
      "count": 72,
      "min": [
        0
      ],
      "max": [
        25
      ],
      "type": "SCALAR",
      "bufferView": 3,
      "byteOffset": 0
    }
  ],
  "asset": {
    "generator": "obj2gltf",
    "version": "2.0"
  },
  "buffers": [
    {
      "name": "光束_圆锥",
      "byteLength": 20944,
      "uri": "data:application/octet-stream;base64,"
    }
  ],
  "bufferViews": [
    {
      "name": "bufferView_0",
      "buffer": 0,
      "byteLength": 312,
      "byteOffset": 0,
      "byteStride": 12,
      "target": 34962
    },
    {
      "name": "bufferView_1",
      "buffer": 0,
      "byteLength": 312,
      "byteOffset": 312,
      "byteStride": 12,
      "target": 34962
    },
    {
      "name": "bufferView_2",
      "buffer": 0,
      "byteLength": 208,
      "byteOffset": 624,
      "byteStride": 8,
      "target": 34962
    },
    {
      "name": "bufferView_3",
      "buffer": 0,
      "byteLength": 144,
      "byteOffset": 832,
      "target": 34963
    },
    {
      "buffer": 0,
      "byteOffset": 976,
      "byteLength": 19967
    }
  ],
  "images": [
    {
      "name": "light",
      "mimeType": "image/png",
      "bufferView": 4
    }
  ],
  "materials": [
    {
      "name": "lambert4",
      "pbrMetallicRoughness": {
        "baseColorTexture": {
          "index": 0
        },
        "baseColorFactor": [
          1,
          1,
          1,
          1
        ],
        "metallicFactor": 0,
        "roughnessFactor": 1
      },
      "emissiveFactor": [
        0,
        0,
        0
      ],
      "alphaMode": "BLEND",
      "doubleSided": true
    }
  ],
  "meshes": [
    {
      "name": "pCylinder7_1",
      "primitives": [
        {
          "attributes": {
            "POSITION": 0,
            "NORMAL": 1,
            "TEXCOORD_0": 2
          },
          "indices": 3,
          "material": 0,
          "mode": 4
        }
      ]
    }
  ],
  "nodes": [
    {
      "name": "pCylinder7",
      "mesh": 0
    }
  ],
  "samplers": [
    {
      "magFilter": 9729,
      "minFilter": 9986,
      "wrapS": 10497,
      "wrapT": 10497
    }
  ],
  "scene": 0,
  "scenes": [
    {
      "nodes": [
        0
      ]
    }
  ],
  "textures": [
    {
      "name": "light",
      "sampler": 0,
      "source": 0
    }
  ]
}
