{
  "accessors": [
    {
      "name": "pCube12_1_0_positions",
      "componentType": 5126,
      "count": 44,
      "min": [
        -201.5778045654297,
        -71.39409637451172,
        -207.7041015625
      ],
      "max": [
        -130.37469482421875,
        -43.96289825439453,
        -136.5009002685547
      ],
      "type": "VEC3",
      "bufferView": 0,
      "byteOffset": 0
    },
    {
      "name": "pCube12_1_0_normals",
      "componentType": 5126,
      "count": 44,
      "min": [
        -0.9999788999557495,
        0,
        -0.9999788999557495
      ],
      "max": [
        0.9999788999557495,
        0,
        0.9999788999557495
      ],
      "type": "VEC3",
      "bufferView": 1,
      "byteOffset": 0
    },
    {
      "name": "pCube12_1_0_texcoords",
      "componentType": 5126,
      "count": 44,
      "min": [
        0.015399999916553497,
        0.8115000128746033
      ],
      "max": [
        0.9214000105857849,
        0.8597000241279602
      ],
      "type": "VEC2",
      "bufferView": 2,
      "byteOffset": 0
    },
    {
      "name": "pCube12_1_0_indices",
      "componentType": 5123,
      "count": 120,
      "min": [
        0
      ],
      "max": [
        43
      ],
      "type": "SCALAR",
      "bufferView": 3,
      "byteOffset": 0
    }
  ],
  "asset": {
    "generator": "obj2gltf",
    "version": "2.0"
  },
  "buffers": [
    {
      "name": "第三方系统_护罩",
      "byteLength": 37304,
      "uri": "data:application/octet-stream;base64,"
    }
  ],
  "bufferViews": [
    {
      "name": "bufferView_0",
      "buffer": 0,
      "byteLength": 528,
      "byteOffset": 0,
      "byteStride": 12,
      "target": 34962
    },
    {
      "name": "bufferView_1",
      "buffer": 0,
      "byteLength": 528,
      "byteOffset": 528,
      "byteStride": 12,
      "target": 34962
    },
    {
      "name": "bufferView_2",
      "buffer": 0,
      "byteLength": 352,
      "byteOffset": 1056,
      "byteStride": 8,
      "target": 34962
    },
    {
      "name": "bufferView_3",
      "buffer": 0,
      "byteLength": 240,
      "byteOffset": 1408,
      "target": 34963
    },
    {
      "buffer": 0,
      "byteOffset": 1648,
      "byteLength": 35656
    }
  ],
  "images": [
    {
      "name": "gzjcpt",
      "mimeType": "image/jpeg",
      "bufferView": 4
    }
  ],
  "materials": [
    {
      "name": "lambert2",
      "pbrMetallicRoughness": {
        "baseColorTexture": {
          "index": 0
        },
        "baseColorFactor": [
          1,
          1,
          1,
          1
        ],
        "metallicFactor": 0,
        "roughnessFactor": 1
      },
      "emissiveFactor": [
        0,
        0,
        0
      ],
      "alphaMode": "OPAQUE",
      "doubleSided": false
    }
  ],
  "meshes": [
    {
      "name": "pCube12_1",
      "primitives": [
        {
          "attributes": {
            "POSITION": 0,
            "NORMAL": 1,
            "TEXCOORD_0": 2
          },
          "indices": 3,
          "material": 0,
          "mode": 4
        }
      ]
    }
  ],
  "nodes": [
    {
      "name": "pCube12",
      "mesh": 0
    }
  ],
  "samplers": [
    {
      "magFilter": 9729,
      "minFilter": 9986,
      "wrapS": 10497,
      "wrapT": 10497
    }
  ],
  "scene": 0,
  "scenes": [
    {
      "nodes": [
        0
      ]
    }
  ],
  "textures": [
    {
      "name": "gzjcpt",
      "sampler": 0,
      "source": 0
    }
  ]
}
